<svg xmlns="http://www.w3.org/2000/svg" width="145" height="28"><g fill="#fff"><path d="M0 27v-26h4.9v10.4h7v-10.4h4.9v26h-4.9v-11.2h-7v11.2h-4.9zM21.5 27l6.4-26h6.3l6.2 26h-4.7l-1.2-5.5h-6.8l-1.4 5.5h-4.8zm7.1-9.9h4.9l-2.4-10.5h-.1l-2.4 10.5zM56.5 27l-4.3-10.6h-2.4v10.6h-4.9v-26h7.1c5.9 0 8.7 2.9 8.7 7.8 0 3.2-1.1 5.6-3.9 6.6l4.9 11.6h-5.2zm-6.7-14.7h2.5c2.2 0 3.5-1.1 3.5-3.6s-1.3-3.6-3.5-3.6h-2.5v7.2zM64.8 1h4.9l4.5 18.6h.1l4.5-18.6h4.8l-6.6 26h-5.6l-6.6-26zM88.2 27v-26h13.5v4.4h-8.6v6h6.5v4.4h-6.5v6.8h8.9v4.4h-13.8zM118.6 8.3c-.8-2.4-1.9-3.5-3.6-3.5-1.7 0-2.7 1.1-2.7 2.8 0 3.9 11 4.2 11 12.2 0 4.4-3 7.4-8.2 7.4-4 0-7.1-2.2-8.4-7.2l4.9-1c.6 3.1 2.4 4.2 3.8 4.2 1.7 0 3-1.1 3-3.1 0-4.9-11-4.9-11-12.1 0-4.4 2.6-7.2 7.7-7.2 4.4 0 7.1 2.6 7.9 6.2l-4.4 1.3zM144.3 1v4.4h-5.7v21.6h-4.9v-21.6h-5.7v-4.4h16.3z"/></g></svg>